<?xml version="1.0" encoding="utf-8"?>
<!-- Generator: Adobe Illustrator 16.0.0, SVG Export Plug-In . SVG Version: 6.00 Build 0)  -->
<!DOCTYPE svg PUBLIC "-//W3C//DTD SVG 1.1//EN" "http://www.w3.org/Graphics/SVG/1.1/DTD/svg11.dtd">
<svg version="1.1" xmlns="http://www.w3.org/2000/svg" xmlns:xlink="http://www.w3.org/1999/xlink" x="0px" y="0px" width="612px"
	 height="792px" viewBox="0 0 612 792" enable-background="new 0 0 612 792" xml:space="preserve">
<g id="Default">
	
		<rect x="166.916" y="50.897" fill="none" stroke="#000000" stroke-linecap="round" stroke-linejoin="round" width="87.084" height="130.627"/>
	
		<rect x="64.204" y="49.712" fill="none" stroke="#000000" stroke-linecap="round" stroke-linejoin="round" width="87.084" height="130.626"/>
</g>
<g id="Drawers">
	<polygon fill="none" stroke="#ED1C24" stroke-linecap="round" stroke-linejoin="round" points="184.278,71.618 184.278,69.458 
		183.407,69.458 183.407,65.83 184.278,65.83 184.278,60.438 183.407,60.438 183.407,56.809 184.278,56.809 184.278,54.65 
		184.278,53.779 183.407,53.779 178.486,53.779 178.486,54.65 174.857,54.65 174.857,53.779 169.937,53.779 169.937,72.489 
		174.857,72.489 174.857,71.618 178.486,71.618 178.486,72.489 183.407,72.489 184.278,72.489 	"/>
	<polygon fill="none" stroke="#ED1C24" stroke-linecap="round" stroke-linejoin="round" points="251.254,159.321 244.142,159.321 
		244.142,158.45 240.514,158.45 240.514,159.321 228.902,159.321 228.902,158.45 225.274,158.45 225.274,159.321 216.275,159.321 
		216.275,158.45 212.646,158.45 212.646,159.321 201.036,159.321 201.036,158.45 197.407,158.45 197.407,159.321 190.005,159.321 
		190.005,158.45 190.005,153.529 189.134,153.529 189.134,149.9 190.005,149.9 190.005,144.979 251.254,144.979 251.254,149.9 
		252.125,149.9 252.125,153.529 251.254,153.529 251.254,158.45 	"/>
	<polygon fill="none" stroke="#ED1C24" stroke-linecap="round" stroke-linejoin="round" points="189.467,177.095 189.467,173.466 
		190.338,173.466 190.338,168.074 189.467,168.074 189.467,164.446 190.338,164.446 190.338,162.286 197.74,162.286 197.74,161.415 
		201.369,161.415 201.369,162.286 212.979,162.286 212.979,161.415 216.608,161.415 216.608,162.286 225.607,162.286 
		225.607,161.415 229.235,161.415 229.235,162.286 240.847,162.286 240.847,161.415 244.475,161.415 244.475,162.286 
		251.587,162.286 251.587,164.446 252.458,164.446 252.458,168.074 251.587,168.074 251.587,173.466 252.458,173.466 
		252.458,177.095 251.587,177.095 251.587,179.254 244.475,179.254 244.475,180.125 240.847,180.125 240.847,179.254 
		229.235,179.254 229.235,180.125 225.607,180.125 225.607,179.254 216.608,179.254 216.608,180.125 212.979,180.125 
		212.979,179.254 201.369,179.254 201.369,180.125 197.74,180.125 197.74,179.254 190.338,179.254 190.338,177.095 	"/>
	<polygon fill="none" stroke="#ED1C24" stroke-linecap="round" stroke-linejoin="round" points="169.776,91.375 169.776,89.215 
		170.647,89.215 170.647,85.586 169.776,85.586 169.776,80.194 170.647,80.194 170.647,76.566 169.776,76.566 169.776,74.406 
		169.776,73.535 170.647,73.535 175.568,73.535 175.568,74.406 179.196,74.406 179.196,73.535 184.118,73.535 184.118,92.245 
		179.196,92.245 179.196,91.375 175.568,91.375 175.568,92.245 170.647,92.245 169.776,92.245 	"/>
	<polygon fill="none" stroke="#ED1C24" stroke-linecap="round" stroke-linejoin="round" points="251.709,129.039 244.598,129.039 
		244.598,129.91 240.969,129.91 240.969,129.039 229.357,129.039 229.357,129.91 225.729,129.91 225.729,129.039 216.73,129.039 
		216.73,129.91 213.102,129.91 213.102,129.039 201.491,129.039 201.491,129.91 197.862,129.91 197.862,129.039 190.46,129.039 
		190.46,129.91 190.46,134.831 189.589,134.831 189.589,138.459 190.46,138.459 190.46,143.381 251.709,143.381 251.709,138.459 
		252.58,138.459 252.58,134.831 251.709,134.831 251.709,129.91 	"/>
</g>
<g id="Little_drawers">
	<polyline fill="none" stroke="#7A3C2D" stroke-linecap="round" stroke-linejoin="round" points="79.95,134.769 79.08,134.769 
		79.08,138.397 79.95,138.397 79.95,149.282 79.08,149.282 79.08,152.911 79.95,152.911 79.95,158.717 79.08,158.717 
		74.158,158.717 74.158,159.588 70.53,159.588 70.53,158.717 65.608,158.717 65.608,128.963 70.53,128.963 70.53,128.092 
		74.158,128.092 74.158,128.963 79.08,128.963 79.95,128.963 79.95,134.769 79.95,128.963 	"/>
	<polygon fill="none" stroke="#7A3C2D" stroke-linecap="round" stroke-linejoin="round" points="119.62,140.557 114.698,140.557 
		114.698,141.428 111.07,141.428 111.07,140.557 106.148,140.557 106.148,159.267 111.07,159.267 111.07,158.396 114.698,158.396 
		114.698,159.267 119.62,159.267 120.49,159.267 120.49,158.396 120.49,156.237 119.62,156.237 119.62,152.608 120.49,152.608 
		120.49,147.216 119.62,147.216 119.62,143.587 120.49,143.587 120.49,141.428 120.49,140.557 	"/>
	<polyline fill="none" stroke="#7A3C2D" stroke-linecap="round" stroke-linejoin="round" points="201.695,70.655 201.695,71.526 
		205.323,71.526 205.323,70.655 216.209,70.655 216.209,71.526 219.837,71.526 219.837,70.655 225.643,70.655 225.643,68.496 
		226.514,68.496 226.514,64.867 225.643,64.867 225.643,59.475 226.514,59.475 226.514,55.846 225.643,55.846 225.643,53.687 
		219.837,53.687 219.837,52.816 216.209,52.816 216.209,53.687 205.323,53.687 205.323,52.816 201.695,52.816 201.695,53.687 
		195.889,53.687 195.889,55.846 195.019,55.846 195.019,59.475 195.889,59.475 195.889,64.867 195.019,64.867 195.019,68.496 
		195.889,68.496 195.889,70.655 201.695,70.655 195.889,70.655 	"/>
	<polyline fill="none" stroke="#7A3C2D" stroke-linecap="round" stroke-linejoin="round" points="92.423,58.662 91.552,58.662 
		91.552,62.291 92.423,62.291 92.423,73.176 91.552,73.176 91.552,76.805 92.423,76.805 92.423,82.61 94.583,82.61 94.583,83.481 
		98.211,83.481 98.211,82.61 103.604,82.61 103.604,83.481 107.232,83.481 107.232,82.61 109.391,82.61 109.391,76.805 
		110.262,76.805 110.262,73.176 109.391,73.176 109.391,62.291 110.262,62.291 110.262,58.662 109.391,58.662 109.391,52.856 
		107.232,52.856 107.232,51.986 103.604,51.986 103.604,52.856 98.211,52.856 98.211,51.986 94.583,51.986 94.583,52.856 
		92.423,52.856 92.423,58.662 92.423,52.856 	"/>
	<polyline fill="none" stroke="#7A3C2D" stroke-linecap="round" stroke-linejoin="round" points="173.737,155.177 174.608,155.177 
		174.608,158.805 173.737,158.805 173.737,169.691 174.608,169.691 174.608,173.319 173.737,173.319 173.737,179.125 
		174.608,179.125 179.529,179.125 179.529,179.996 183.158,179.996 183.158,179.125 188.079,179.125 188.079,149.371 
		183.158,149.371 183.158,148.5 179.529,148.5 179.529,149.371 174.608,149.371 173.737,149.371 173.737,155.177 173.737,149.371 	
		"/>
	<polyline fill="none" stroke="#7A3C2D" stroke-linecap="round" stroke-linejoin="round" points="92.17,86.002 92.17,86.873 
		88.542,86.873 88.542,86.002 77.656,86.002 77.656,86.873 74.028,86.873 74.028,86.002 68.222,86.002 68.222,86.873 68.222,91.794 
		67.352,91.794 67.352,95.423 68.222,95.423 68.222,100.344 97.976,100.344 97.976,95.423 98.847,95.423 98.847,91.794 
		97.976,91.794 97.976,86.873 97.976,86.002 92.17,86.002 97.976,86.002 	"/>
	<polyline fill="none" stroke="#7A3C2D" stroke-linecap="round" stroke-linejoin="round" points="184.25,123.6 183.378,123.6 
		183.378,127.229 184.25,127.229 184.25,138.114 183.378,138.114 183.378,141.743 184.25,141.743 184.25,147.548 183.378,147.548 
		178.457,147.548 178.457,148.419 174.829,148.419 174.829,147.548 169.908,147.548 169.908,117.794 174.829,117.794 
		174.829,116.923 178.457,116.923 178.457,117.794 183.378,117.794 184.25,117.794 184.25,123.6 184.25,117.794 	"/>
	<polygon fill="none" stroke="#7A3C2D" stroke-linecap="round" stroke-linejoin="round" points="214.222,106.912 219.143,106.912 
		219.143,107.783 222.771,107.783 222.771,106.912 227.693,106.912 227.693,125.622 222.771,125.622 222.771,124.751 
		219.143,124.751 219.143,125.622 214.222,125.622 213.351,125.622 213.351,124.751 213.351,122.592 214.222,122.592 
		214.222,118.963 213.351,118.963 213.351,113.571 214.222,113.571 214.222,109.942 213.351,109.942 213.351,107.783 
		213.351,106.912 	"/>
	<polygon fill="none" stroke="#7A3C2D" stroke-linecap="round" stroke-linejoin="round" points="183.436,96.085 178.515,96.085 
		178.515,96.956 174.886,96.956 174.886,96.085 169.965,96.085 169.965,114.795 174.886,114.795 174.886,113.924 178.515,113.924 
		178.515,114.795 183.436,114.795 184.307,114.795 184.307,113.924 184.307,111.765 183.436,111.765 183.436,108.136 
		184.307,108.136 184.307,102.744 183.436,102.744 183.436,99.115 184.307,99.115 184.307,96.956 184.307,96.085 	"/>
	<polygon fill="none" stroke="#7A3C2D" stroke-linecap="round" stroke-linejoin="round" points="113.397,94.935 113.397,90.014 
		114.268,90.014 114.268,86.385 113.397,86.385 113.397,81.464 132.107,81.464 132.107,86.385 131.236,86.385 131.236,90.014 
		132.107,90.014 132.107,94.935 132.107,95.806 131.236,95.806 129.077,95.806 129.077,94.935 125.448,94.935 125.448,95.806 
		120.056,95.806 120.056,94.935 116.428,94.935 116.428,95.806 114.268,95.806 113.397,95.806 	"/>
</g>
<g id="Hanging_stuff">
	
		<rect x="229.71" y="79.865" fill="none" stroke="#2E3192" stroke-linecap="round" stroke-linejoin="round" width="1.741" height="0.871"/>
	<polygon fill="none" stroke="#2E3192" stroke-linecap="round" stroke-linejoin="round" points="250.332,53.803 250.332,58.157 
		251.203,58.157 251.203,59.899 250.332,59.899 250.332,64.253 251.203,64.253 251.203,65.995 250.332,65.995 250.332,69.558 
		251.203,69.558 251.203,71.3 250.332,71.3 250.332,75.654 245.978,75.654 245.978,76.525 244.236,76.525 244.236,75.654 
		240.673,75.654 240.673,76.525 238.931,76.525 238.931,75.654 234.577,75.654 234.577,76.525 232.835,76.525 232.835,75.654 
		228.481,75.654 228.481,71.3 227.61,71.3 227.61,69.558 228.481,69.558 228.481,65.995 227.61,65.995 227.61,64.253 
		228.481,64.253 228.481,59.899 227.61,59.899 227.61,58.157 228.481,58.157 228.481,53.803 232.835,53.803 232.835,52.932 
		234.577,52.932 234.577,53.803 238.931,53.803 238.931,52.932 240.673,52.932 240.673,53.803 244.236,53.803 244.236,52.932 
		245.978,52.932 245.978,53.803 	"/>
	<polygon fill="none" stroke="#2E3192" stroke-linecap="round" stroke-linejoin="round" points="126.625,103.042 126.625,107.397 
		125.753,107.397 125.753,109.138 126.625,109.138 126.625,112.702 125.753,112.702 125.753,114.444 126.625,114.444 
		126.625,118.798 148.476,118.798 148.476,114.444 149.347,114.444 149.347,112.702 148.476,112.702 148.476,109.138 
		149.347,109.138 149.347,107.397 148.476,107.397 148.476,103.042 149.347,103.042 149.347,101.301 148.476,101.301 
		148.476,96.947 126.625,96.947 126.625,101.301 125.753,101.301 125.753,103.042 	"/>
	<polygon fill="none" stroke="#2E3192" stroke-linecap="round" stroke-linejoin="round" points="88.094,104.501 88.094,108.855 
		88.964,108.855 88.964,110.597 88.094,110.597 88.094,114.951 88.964,114.951 88.964,116.693 88.094,116.693 88.094,120.256 
		88.964,120.256 88.964,121.998 88.094,121.998 88.094,126.352 83.739,126.352 83.739,127.223 81.998,127.223 81.998,126.352 
		78.434,126.352 78.434,127.223 76.692,127.223 76.692,126.352 72.338,126.352 72.338,127.223 70.597,127.223 70.597,126.352 
		66.242,126.352 66.242,121.998 65.372,121.998 65.372,120.256 66.242,120.256 66.242,116.693 65.372,116.693 65.372,114.951 
		66.242,114.951 66.242,110.597 65.372,110.597 65.372,108.855 66.242,108.855 66.242,104.501 70.597,104.501 70.597,103.63 
		72.338,103.63 72.338,104.501 76.692,104.501 76.692,103.63 78.434,103.63 78.434,104.501 81.998,104.501 81.998,103.63 
		83.739,103.63 83.739,104.501 	"/>
	<polygon fill="none" stroke="#2E3192" stroke-linecap="round" stroke-linejoin="round" points="101.124,113.35 101.124,108.996 
		100.252,108.996 100.252,107.254 101.124,107.254 101.124,103.69 100.252,103.69 100.252,101.949 101.124,101.949 101.124,97.594 
		122.975,97.594 122.975,101.949 123.846,101.949 123.846,103.69 122.975,103.69 122.975,107.254 123.846,107.254 123.846,108.996 
		122.975,108.996 122.975,113.35 123.846,113.35 123.846,115.092 122.975,115.092 122.975,119.446 101.124,119.446 101.124,115.092 
		100.252,115.092 100.252,113.35 	"/>
	
		<rect x="105.478" y="98.625" fill="none" stroke="#2E3192" stroke-linecap="round" stroke-linejoin="round" width="1.742" height="0.871"/>
	
		<rect x="111.573" y="98.625" fill="none" stroke="#2E3192" stroke-linecap="round" stroke-linejoin="round" width="1.742" height="0.871"/>
	
		<rect x="116.879" y="98.625" fill="none" stroke="#2E3192" stroke-linecap="round" stroke-linejoin="round" width="1.742" height="0.871"/>
	
		<rect x="130.979" y="116.897" fill="none" stroke="#2E3192" stroke-linecap="round" stroke-linejoin="round" width="1.742" height="0.871"/>
	
		<rect x="137.075" y="116.897" fill="none" stroke="#2E3192" stroke-linecap="round" stroke-linejoin="round" width="1.742" height="0.871"/>
	
		<rect x="142.38" y="116.897" fill="none" stroke="#2E3192" stroke-linecap="round" stroke-linejoin="round" width="1.742" height="0.871"/>
	<path fill="none" stroke="#2E3192" stroke-linecap="round" stroke-linejoin="round" d="M103.3,133.86c0,0.29,0,0.581,0,0.871
		c0,7.284,0,14.567,0,21.851c0,0.29,0,0.581,0,0.871c-1.451,0-2.903,0-4.354,0c0-0.29,0-0.581,0-0.871c-0.581,0-1.161,0-1.742,0
		c0,0.29,0,0.581,0,0.871c-1.452,0-2.903,0-4.354,0c0-0.29,0-0.581,0-0.871c-0.581,0-1.161,0-1.742,0c0,0.29,0,0.581,0,0.871
		c-1.188,0-2.375,0-3.563,0c0-0.29,0-0.581,0-0.871c-0.581,0-1.161,0-1.742,0c0,0.29,0,0.581,0,0.871c-1.451,0-2.903,0-4.354,0
		c0-0.29,0-0.581,0-0.871c0-7.284,0-14.568,0-21.851c0-0.29,0-0.581,0-0.871c1.451,0,2.903,0,4.354,0c0,0.29,0,0.581,0,0.871
		c0.581,0,1.161,0,1.742,0c0-0.29,0-0.581,0-0.871c1.188,0,2.375,0,3.563,0c0,0.29,0,0.581,0,0.871c0.581,0,1.161,0,1.742,0
		c0-0.29,0-0.581,0-0.871c0.955,0,1.909,0,2.864,0c0.681,0,1.233-0.552,1.233-1.233c0-0.299,0-0.598,0-0.898
		c0-0.681-0.552-1.233-1.233-1.233c-0.474,0-0.947,0-1.421,0c-0.681,0-1.233-0.552-1.233-1.233c0-0.598,0-1.197,0-1.795
		c0-0.681,0.552-1.233,1.233-1.233c2.592,0,5.183,0,7.774,0c0.681,0,1.233,0.552,1.233,1.233c0,1.84,0,3.68,0,5.521
		c0,8.155,0,16.309,0,24.464"/>
	
		<rect x="230.857" y="119.758" fill="none" stroke="#2E3192" stroke-linecap="round" stroke-linejoin="round" width="0.871" height="1.742"/>
	
		<rect x="230.857" y="108.357" fill="none" stroke="#2E3192" stroke-linecap="round" stroke-linejoin="round" width="0.871" height="1.742"/>
	
		<rect x="230.857" y="114.453" fill="none" stroke="#2E3192" stroke-linecap="round" stroke-linejoin="round" width="0.871" height="1.742"/>
	<path fill="none" stroke="#2E3192" stroke-linecap="round" stroke-linejoin="round" d="M251.679,103.132c0,0.29,0,0.581,0,0.871
		c0,7.284,0,14.568,0,21.851c0,0.29,0,0.581,0,0.871c-1.452,0-2.903,0-4.354,0c0-0.29,0-0.581,0-0.871c-0.581,0-1.161,0-1.742,0
		c0,0.29,0,0.581,0,0.871c-1.451,0-2.903,0-4.354,0c0-0.29,0-0.581,0-0.871c-0.581,0-1.161,0-1.742,0c0,0.29,0,0.581,0,0.871
		c-1.188,0-2.376,0-3.563,0c0-0.29,0-0.581,0-0.871c-0.581,0-1.161,0-1.742,0c0,0.29,0,0.581,0,0.871c-1.452,0-2.903,0-4.354,0
		c0-0.29,0-0.581,0-0.871c0-7.284,0-14.568,0-21.851c0-0.29,0-0.581,0-0.871c1.452,0,2.903,0,4.354,0c0,0.29,0,0.581,0,0.871
		c0.581,0,1.161,0,1.742,0c0-0.29,0-0.581,0-0.871c1.188,0,2.375,0,3.563,0c0,0.29,0,0.581,0,0.871c0.581,0,1.161,0,1.742,0
		c0-0.29,0-0.581,0-0.871c0.955,0,1.909,0,2.864,0c0.681,0,1.233-0.552,1.233-1.233c0-0.299,0-0.599,0-0.898
		c0-0.681-0.552-1.233-1.233-1.233c-0.474,0-0.947,0-1.421,0c-0.681,0-1.233-0.552-1.233-1.233c0-0.598,0-1.196,0-1.795
		c0-0.681,0.552-1.233,1.233-1.233c2.591,0,5.183,0,7.774,0c0.681,0,1.233,0.552,1.233,1.233c0,1.84,0,3.68,0,5.521
		c0,8.155,0,16.309,0,24.464"/>
	<polygon fill="none" stroke="#2E3192" stroke-linecap="round" stroke-linejoin="round" points="188.297,111.29 188.297,115.644 
		187.426,115.644 187.426,117.386 188.297,117.386 188.297,120.949 187.426,120.949 187.426,122.691 188.297,122.691 
		188.297,127.045 210.148,127.045 210.148,122.691 211.019,122.691 211.019,120.949 210.148,120.949 210.148,117.386 
		211.019,117.386 211.019,115.644 210.148,115.644 210.148,111.29 211.019,111.29 211.019,109.548 210.148,109.548 210.148,105.194 
		188.297,105.194 188.297,109.548 187.426,109.548 187.426,111.29 	"/>
	
		<rect x="192.651" y="125.145" fill="none" stroke="#2E3192" stroke-linecap="round" stroke-linejoin="round" width="1.742" height="0.871"/>
	
		<rect x="198.747" y="125.145" fill="none" stroke="#2E3192" stroke-linecap="round" stroke-linejoin="round" width="1.742" height="0.871"/>
	
		<rect x="204.052" y="125.145" fill="none" stroke="#2E3192" stroke-linecap="round" stroke-linejoin="round" width="1.742" height="0.871"/>
	<path fill="none" stroke="#2E3192" stroke-linecap="round" stroke-linejoin="round" d="M188.211,79.577c0,0.29,0,0.581,0,0.871
		c0,7.284,0,14.568,0,21.851c0,0.29,0,0.581,0,0.871c1.451,0,2.903,0,4.354,0c0-0.29,0-0.581,0-0.871c0.581,0,1.161,0,1.742,0
		c0,0.29,0,0.581,0,0.871c1.452,0,2.903,0,4.354,0c0-0.29,0-0.581,0-0.871c0.58,0,1.161,0,1.742,0c0,0.29,0,0.581,0,0.871
		c1.188,0,2.375,0,3.563,0c0-0.29,0-0.581,0-0.871c0.581,0,1.161,0,1.742,0c0,0.29,0,0.581,0,0.871c1.451,0,2.903,0,4.354,0
		c0-0.29,0-0.581,0-0.871c0-7.284,0-14.567,0-21.851c0-0.29,0-0.581,0-0.871c-1.451,0-2.903,0-4.354,0c0,0.29,0,0.581,0,0.871
		c-0.581,0-1.161,0-1.742,0c0-0.29,0-0.581,0-0.871c-1.188,0-2.376,0-3.563,0c0,0.29,0,0.581,0,0.871c-0.581,0-1.162,0-1.742,0
		c0-0.29,0-0.581,0-0.871c-0.955,0-1.909,0-2.864,0c-0.681,0-1.232-0.552-1.232-1.233c0-0.299,0-0.598,0-0.898
		c0-0.681,0.552-1.233,1.232-1.233c0.474,0,0.948,0,1.421,0c0.681,0,1.233-0.552,1.233-1.233c0-0.598,0-1.197,0-1.795
		c0-0.681-0.552-1.233-1.233-1.233c-2.592,0-5.183,0-7.774,0c-0.681,0-1.233,0.552-1.233,1.233c0,1.84,0,3.68,0,5.52
		c0,8.155,0,16.309,0,24.464"/>
	
		<rect x="208.161" y="96.204" fill="none" stroke="#2E3192" stroke-linecap="round" stroke-linejoin="round" width="0.871" height="1.742"/>
	
		<rect x="208.161" y="84.802" fill="none" stroke="#2E3192" stroke-linecap="round" stroke-linejoin="round" width="0.871" height="1.742"/>
	
		<rect x="208.161" y="90.898" fill="none" stroke="#2E3192" stroke-linecap="round" stroke-linejoin="round" width="0.871" height="1.742"/>
	
		<line fill="none" stroke="#2E3192" stroke-linecap="round" stroke-linejoin="round" x1="210.062" y1="80.448" x2="210.062" y2="102.3"/>
	<polygon fill="none" stroke="#2E3192" stroke-linecap="round" stroke-linejoin="round" points="213.954,94.59 213.954,90.236 
		213.083,90.236 213.083,88.494 213.954,88.494 213.954,84.931 213.083,84.931 213.083,83.189 213.954,83.189 213.954,78.835 
		235.806,78.835 235.806,83.189 236.676,83.189 236.676,84.931 235.806,84.931 235.806,88.494 236.676,88.494 236.676,90.236 
		235.806,90.236 235.806,94.59 236.676,94.59 236.676,96.332 235.806,96.332 235.806,100.686 213.954,100.686 213.954,96.332 
		213.083,96.332 213.083,94.59 	"/>
	
		<rect x="218.309" y="79.865" fill="none" stroke="#2E3192" stroke-linecap="round" stroke-linejoin="round" width="1.742" height="0.871"/>
	
		<rect x="224.404" y="79.865" fill="none" stroke="#2E3192" stroke-linecap="round" stroke-linejoin="round" width="1.742" height="0.871"/>
	
		<rect x="82.479" y="139.085" fill="none" stroke="#2E3192" stroke-linecap="round" stroke-linejoin="round" width="0.871" height="1.742"/>
	
		<rect x="82.479" y="150.486" fill="none" stroke="#2E3192" stroke-linecap="round" stroke-linejoin="round" width="0.871" height="1.742"/>
	<path fill="none" stroke="#2E3192" stroke-linecap="round" stroke-linejoin="round" d="M66.999,58.859c0,0.29,0,0.581,0,0.871
		c0,7.284,0,14.568,0,21.851c0,0.29,0,0.581,0,0.871c1.451,0,2.903,0,4.354,0c0-0.29,0-0.581,0-0.871c0.581,0,1.161,0,1.742,0
		c0,0.29,0,0.581,0,0.871c1.451,0,2.903,0,4.354,0c0-0.29,0-0.581,0-0.871c0.581,0,1.161,0,1.742,0c0,0.29,0,0.581,0,0.871
		c1.188,0,2.376,0,3.564,0c0-0.29,0-0.581,0-0.871c0.581,0,1.161,0,1.742,0c0,0.29,0,0.581,0,0.871c1.451,0,2.903,0,4.354,0
		c0-0.29,0-0.581,0-0.871c0-7.284,0-14.567,0-21.851c0-0.29,0-0.581,0-0.871c-1.451,0-2.903,0-4.354,0c0,0.29,0,0.581,0,0.871
		c-0.581,0-1.161,0-1.742,0c0-0.29,0-0.581,0-0.871c-1.188,0-2.376,0-3.564,0c0,0.29,0,0.581,0,0.871c-0.581,0-1.161,0-1.742,0
		c0-0.29,0-0.581,0-0.871c-0.955,0-1.909,0-2.864,0c-0.681,0-1.233-0.552-1.233-1.233c0-0.299,0-0.598,0-0.898
		c0-0.681,0.552-1.233,1.233-1.233c0.474,0,0.947,0,1.421,0c0.681,0,1.232-0.552,1.232-1.233c0-0.598,0-1.197,0-1.795
		c0-0.681-0.552-1.233-1.232-1.233c-2.592,0-5.183,0-7.774,0c-0.681,0-1.233,0.552-1.233,1.233c0,1.84,0,3.68,0,5.52
		c0,8.155,0,16.309,0,24.464"/>
	
		<rect x="86.949" y="75.485" fill="none" stroke="#2E3192" stroke-linecap="round" stroke-linejoin="round" width="0.871" height="1.742"/>
	
		<rect x="86.949" y="64.084" fill="none" stroke="#2E3192" stroke-linecap="round" stroke-linejoin="round" width="0.871" height="1.742"/>
	
		<rect x="86.949" y="70.18" fill="none" stroke="#2E3192" stroke-linecap="round" stroke-linejoin="round" width="0.871" height="1.742"/>
	
		<line fill="none" stroke="#2E3192" stroke-linecap="round" stroke-linejoin="round" x1="88.85" y1="59.729" x2="88.85" y2="81.581"/>
	
		<rect x="82.479" y="145.181" fill="none" stroke="#2E3192" stroke-linecap="round" stroke-linejoin="round" width="0.871" height="1.742"/>
</g>
<g id="Layer_05">
	<polygon fill="none" stroke="#FFFFFF" stroke-linecap="round" stroke-linejoin="round" points="140.376,87.951 149.02,87.951 
		149.02,86.042 149.891,86.042 149.891,82.414 149.02,82.414 149.02,77.493 149.891,77.493 149.891,73.864 149.02,73.864 
		149.02,68.943 149.891,68.943 149.891,65.314 149.02,65.314 149.02,60.393 149.891,60.393 149.891,56.765 149.02,56.765 
		149.02,50.973 141.908,50.973 141.908,51.844 138.279,51.844 138.279,50.973 126.668,50.973 126.655,51.844 123.04,51.844 
		123.04,50.973 119.266,50.973 119.266,56.765 118.395,56.765 118.395,60.393 119.266,60.393 119.266,65.314 	"/>
	<polygon fill="none" stroke="#FFFFFF" stroke-linecap="round" stroke-linejoin="round" points="88.821,159.689 85.193,159.689 
		85.193,160.561 81.419,160.561 81.419,162.72 80.548,162.72 80.548,166.348 81.419,166.348 81.419,171.741 80.548,171.741 
		80.548,175.369 81.419,175.369 81.419,177.529 85.193,177.529 85.193,178.399 88.821,178.399 88.821,177.529 100.433,177.529 
		100.433,178.399 104.061,178.399 104.061,177.529 111.173,177.529 111.173,175.369 112.044,175.369 112.044,171.741 
		111.173,171.741 111.173,166.348 112.044,166.348 112.044,162.72 111.173,162.72 111.173,160.561 104.061,160.561 104.061,159.689 
		100.433,159.689 100.433,160.561 88.821,160.561 	"/>
	<polygon fill="none" stroke="#FFFFFF" stroke-linecap="round" stroke-linejoin="round" points="65.672,159.98 65.672,177.819 
		65.672,178.689 70.593,178.689 70.593,177.819 74.221,177.819 74.221,178.689 80.014,178.689 80.014,175.659 79.143,175.659 
		79.143,172.031 80.014,172.031 80.014,166.639 79.143,166.639 79.143,163.01 80.014,163.01 80.014,159.98 74.221,159.98 
		74.221,160.851 70.593,160.851 70.593,159.98 	"/>
	<polygon fill="none" stroke="#FFFFFF" stroke-linecap="round" stroke-linejoin="round" points="148.776,139.466 148.776,120.756 
		146.868,120.756 146.868,121.627 143.239,121.627 143.239,120.756 138.318,120.756 138.318,121.627 134.689,121.627 
		134.689,120.756 129.768,120.756 129.768,121.627 126.14,121.627 126.14,120.756 121.218,120.756 121.218,121.627 117.59,121.627 
		117.59,120.756 111.798,120.756 111.798,123.787 112.668,123.787 112.668,127.415 111.798,127.415 111.798,132.807 
		112.668,132.807 112.668,136.436 111.798,136.436 111.798,139.466 117.59,139.466 117.59,138.595 121.218,138.595 121.218,139.466 
		126.14,139.466 126.14,138.595 129.768,138.595 129.768,139.466 134.689,139.466 134.689,138.595 138.318,138.595 138.318,139.466 
		143.239,139.466 143.239,138.595 146.868,138.595 146.868,139.466 	"/>
	<path fill="none" stroke="#FFFFFF" stroke-linecap="round" stroke-linejoin="round" d="M128.417,71.922
		c-0.865-0.928-0.208-2.441,1.062-2.441c0.133,0,0.267,0,0.4,0c0.447,0,0.757,0.135,1.062,0.462
		c3.8,4.074,7.599,8.149,11.399,12.223c0.865,0.928,0.207,2.441-1.062,2.441c-0.134,0-0.267,0-0.4,0
		c-0.447,0-0.757-0.134-1.062-0.461C136.016,80.071,132.216,75.996,128.417,71.922z"/>
	<path fill="none" stroke="#FFFFFF" stroke-linecap="round" stroke-linejoin="round" d="M128.514,157.7
		c-0.866,0.928-0.208,2.441,1.061,2.441c0.134,0,0.267,0,0.401,0c0.447,0,0.756-0.135,1.062-0.461
		c3.799-4.074,7.599-8.149,11.398-12.223c0.865-0.928,0.208-2.441-1.062-2.441c-0.133,0-0.267,0-0.4,0
		c-0.447,0-0.757,0.135-1.062,0.461C136.112,149.551,132.313,153.625,128.514,157.7z"/>
	<polygon fill="none" stroke="#FFFFFF" stroke-linecap="round" stroke-linejoin="round" points="140.473,141.67 149.117,141.67 
		149.117,143.579 149.987,143.579 149.987,147.208 149.117,147.208 149.117,152.129 149.987,152.129 149.987,155.757 
		149.117,155.757 149.117,160.679 149.987,160.679 149.987,164.307 149.117,164.307 149.117,169.228 149.987,169.228 
		149.987,172.857 149.117,172.857 149.117,178.649 142.005,178.649 142.005,177.778 138.376,177.778 138.376,178.649 
		126.765,178.649 126.752,177.778 123.136,177.778 123.136,178.649 119.363,178.649 119.363,172.857 118.492,172.857 
		118.492,169.228 119.363,169.228 119.363,164.307 	"/>
</g>
</svg>
